<svg width="300" height="77" viewBox="0 0 300 77" fill="none" xmlns="http://www.w3.org/2000/svg">
<path d="M82.8781 16.2558C79.547 14.6569 70.02 9.92671 69.0873 9.46036C69.0207 9.46036 68.9541 9.46036 68.9541 9.46036L16.9221 35.3098C16.7888 35.3764 16.7888 35.5763 16.9221 35.6429L28.048 41.3058C28.1146 41.3058 28.1812 41.3058 28.2479 41.3058C29.7136 40.573 49.8335 30.3131 51.3658 29.447C51.4324 29.447 51.499 29.447 51.5656 29.447L54.2305 30.7129C54.3638 30.7795 54.3638 30.9127 54.2972 31.046L37.3085 45.6362C37.1752 45.7029 37.2419 45.9027 37.3751 45.9694L49.034 51.8321C49.1006 51.8987 49.1672 51.8321 49.2339 51.8321L67.1553 35.8428C67.2219 35.8428 67.2219 35.7761 67.2885 35.7761C68.088 35.7761 75.483 35.7761 79.8801 34.7102C82.2785 34.044 89.7402 31.1126 91.1393 26.1825C92.5383 21.2525 85.7429 17.6549 82.8781 16.2558ZM79.1473 23.3844C77.4151 25.8494 72.4184 27.7149 70.4864 28.048C68.5543 28.3811 65.8894 28.3145 63.0247 27.0486C61.0926 26.1825 60.1599 25.5829 59.8268 25.3165C59.6936 25.2498 59.7602 25.05 59.8268 24.9833L73.2845 18.1879C73.2845 18.1879 73.2845 18.1879 73.3511 18.1879C73.9507 18.4544 80.7462 21.0526 79.1473 23.3844Z" fill="#5BBC6D"/>
<path d="M53.0979 11.6589L42.1719 5.92939C42.0386 5.86277 42.0386 5.6629 42.1719 5.59628L52.4983 0.599609C52.565 0.599609 52.6316 0.599609 52.6316 0.599609L63.8241 6.12926C63.9574 6.19588 63.9574 6.39575 63.8241 6.46237L53.1646 11.5923C53.2312 11.6589 53.1646 11.6589 53.0979 11.6589ZM34.1772 9.8601L0.399738 26.5823C0.266494 26.6489 0.266494 26.8488 0.399738 26.9154L11.992 32.3784C12.0586 32.3784 12.1253 32.3784 12.1253 32.3784L45.3031 15.6562C45.4364 15.5896 45.4364 15.3897 45.3031 15.3231L34.3105 9.8601C34.3105 9.79348 34.2438 9.79348 34.1772 9.8601Z" fill="#5BBC6D"/>
<path d="M91.1393 37.6416L45.8362 60.1599H45.7695V75.9493H45.8362L91.2725 52.3651C91.3392 52.3651 91.4058 52.2984 91.4058 52.1652V37.7748C91.4058 37.6416 91.2725 37.5749 91.1393 37.6416Z" fill="#53B265"/>
<path d="M45.6362 60.1599L0.266489 37.6416C0.133245 37.575 0 37.6416 0 37.8415V53.098C0 53.1646 0.0666223 53.2312 0.133245 53.2978L45.6362 75.9494H45.7029V60.1599H45.6362Z" fill="#81D891"/>
<path d="M112.059 0.46637H118.588V23.6509H112.059V0.46637Z" fill="#5BBC6D"/>
<path d="M146.702 0.46637L136.776 23.6509H130.313L120.386 0.46637H127.448L133.778 15.5896L140.173 0.46637H146.702V0.46637Z" fill="#5BBC6D"/>
<path d="M152.365 22.5849C150.433 21.519 148.901 20.1199 147.768 18.2545C146.636 16.3891 146.103 14.3238 146.103 12.0586C146.103 9.79347 146.636 7.72818 147.768 5.86276C148.901 3.99733 150.433 2.59827 152.365 1.53231C154.297 0.466356 156.496 0 158.961 0C161.426 0 163.624 0.532978 165.556 1.53231C167.488 2.59827 169.021 3.99733 170.153 5.86276C171.286 7.72818 171.819 9.79347 171.819 12.0586C171.819 14.3238 171.286 16.3891 170.153 18.2545C169.021 20.1199 167.488 21.519 165.556 22.5849C163.624 23.6509 161.426 24.1173 158.961 24.1173C156.496 24.1173 154.297 23.5843 152.365 22.5849ZM162.159 17.8548C163.091 17.3218 163.891 16.5223 164.424 15.523C164.957 14.5236 165.223 13.3911 165.223 12.0586C165.223 10.7262 164.957 9.5936 164.424 8.59427C163.891 7.59494 163.091 6.79547 162.159 6.26249C161.226 5.72951 160.16 5.46302 158.961 5.46302C157.762 5.46302 156.762 5.72951 155.763 6.26249C154.83 6.79547 154.031 7.59494 153.498 8.59427C152.965 9.5936 152.698 10.7262 152.698 12.0586C152.698 13.3911 152.965 14.5236 153.498 15.523C154.031 16.5223 154.83 17.3218 155.763 17.8548C156.696 18.3877 157.762 18.6542 158.961 18.6542C160.16 18.7209 161.226 18.3877 162.159 17.8548Z" fill="#5BBC6D"/>
<path d="M185.277 17.5217H181.679V23.7175H175.15V0.46637H185.743C187.808 0.46637 189.674 0.799481 191.206 1.53233C192.738 2.19855 193.938 3.19788 194.804 4.53033C195.67 5.79615 196.069 7.32846 196.069 9.06064C196.069 10.7262 195.67 12.1919 194.87 13.4577C194.071 14.7235 192.938 15.6562 191.539 16.3891L196.536 23.6509H189.54L185.277 17.5217ZM188.341 6.52899C187.675 5.92939 186.609 5.6629 185.277 5.6629H181.612V12.4584H185.277C186.609 12.4584 187.608 12.1919 188.341 11.5923C189.007 10.9927 189.341 10.1932 189.341 9.06064C189.407 7.99468 189.074 7.12859 188.341 6.52899Z" fill="#5BBC6D"/>
<path d="M210.926 15.3231V23.6509H204.397V15.2565L195.536 0.46637H202.465L207.995 9.66024L213.524 0.46637H219.92L210.926 15.3231Z" fill="#5BBC6D"/>
<path d="M122.185 50.2332H118.588V56.4291H112.059V33.2445H122.652C124.784 33.2445 126.582 33.5776 128.115 34.3105C129.647 34.9767 130.846 35.976 131.712 37.3085C132.578 38.5743 132.978 40.1066 132.978 41.8388C132.978 43.5043 132.578 44.97 131.779 46.2358C130.979 47.5017 129.847 48.4344 128.448 49.1672L133.444 56.4291H126.449L122.185 50.2332ZM125.317 39.3071C124.65 38.7075 123.584 38.441 122.252 38.441H118.588V45.2365H122.252C123.584 45.2365 124.584 44.97 125.317 44.3704C125.983 43.7708 126.316 42.9714 126.316 41.8388C126.316 40.7062 125.983 39.9067 125.317 39.3071Z" fill="#5BBC6D"/>
<path d="M155.097 51.3658V56.4291H136.443V33.2445H154.63V38.3078H142.905V42.2385H153.231V47.1686H142.905V51.4324H155.097V51.3658Z" fill="#5BBC6D"/>
<path d="M161.492 56.1625C159.694 55.6962 158.295 55.0966 157.162 54.2971L159.294 49.4337C160.36 50.0999 161.559 50.6995 162.892 51.0993C164.291 51.499 165.623 51.6989 166.955 51.6989C169.487 51.6989 170.753 51.0993 170.753 49.8334C170.753 49.1672 170.42 48.7009 169.687 48.3677C168.954 48.0346 167.822 47.7015 166.223 47.3684C164.49 46.9687 163.025 46.5689 161.826 46.1692C160.626 45.7695 159.627 45.0366 158.828 44.1039C157.961 43.1712 157.562 41.9054 157.562 40.2398C157.562 38.8408 157.961 37.5749 158.694 36.4424C159.494 35.3098 160.626 34.3771 162.159 33.7109C163.691 33.0446 165.556 32.7115 167.822 32.7115C169.354 32.7115 170.82 32.9114 172.352 33.2445C173.818 33.5776 175.15 34.1106 176.283 34.7768L174.284 39.6402C172.085 38.441 169.953 37.8414 167.888 37.8414C166.556 37.8414 165.623 38.0413 165.023 38.441C164.424 38.8408 164.157 39.3071 164.157 39.9733C164.157 40.5729 164.49 41.0393 165.223 41.3724C165.956 41.7055 167.089 41.972 168.621 42.3051C170.42 42.7049 171.819 43.1046 173.018 43.5043C174.151 43.9041 175.15 44.6369 176.016 45.5696C176.882 46.5023 177.282 47.7681 177.282 49.3671C177.282 50.7661 176.882 52.032 176.149 53.1645C175.35 54.2971 174.217 55.1632 172.685 55.8961C171.153 56.5623 169.287 56.8954 167.022 56.8954C165.09 56.8954 163.291 56.6289 161.492 56.1625Z" fill="#5BBC6D"/>
<path d="M198.934 51.3658V56.4291H180.28V33.2445H198.534V38.3078H186.809V42.2385H197.135V47.1686H186.809V51.4324H198.934V51.3658Z" fill="#5BBC6D"/>
<path d="M218.588 51.8987H208.794L206.995 56.4291H200.333L210.593 33.2445H217.055L227.315 56.4291H220.52L218.588 51.8987ZM216.656 47.1019L213.658 39.7069L210.66 47.1019H216.656Z" fill="#5BBC6D"/>
<path d="M239.174 50.2332H235.576V56.4291H229.047V33.2445H239.64C241.772 33.2445 243.571 33.5776 245.103 34.3105C246.636 34.9767 247.835 35.976 248.701 37.3085C249.567 38.5743 249.967 40.1066 249.967 41.8388C249.967 43.5043 249.567 44.97 248.768 46.2358C247.968 47.5017 246.836 48.4344 245.436 49.1672L250.433 56.4291H243.438L239.174 50.2332ZM242.239 39.3071C241.572 38.7075 240.506 38.441 239.174 38.441H235.51V45.2365H239.174C240.506 45.2365 241.506 44.97 242.239 44.3704C242.905 43.7708 243.238 42.9714 243.238 41.8388C243.305 40.7062 242.971 39.9067 242.239 39.3071Z" fill="#5BBC6D"/>
<path d="M258.161 55.3631C256.229 54.3637 254.697 52.8981 253.631 51.0993C252.498 49.2338 251.965 47.1685 251.965 44.8368C251.965 42.505 252.498 40.4397 253.631 38.5743C254.764 36.7089 256.229 35.3098 258.161 34.3104C260.093 33.3111 262.292 32.7781 264.69 32.7781C266.822 32.7781 268.754 33.1779 270.42 33.9107C272.152 34.6436 273.551 35.7761 274.684 37.1752L270.486 40.9727C268.954 39.1739 267.155 38.2412 265.023 38.2412C263.758 38.2412 262.625 38.5077 261.692 39.0406C260.693 39.5736 259.96 40.3731 259.427 41.3724C258.894 42.3717 258.628 43.5043 258.628 44.8368C258.628 46.1692 258.894 47.3018 259.427 48.3011C259.96 49.3005 260.76 50.0999 261.692 50.6329C262.692 51.1659 263.824 51.4324 265.023 51.4324C267.155 51.4324 269.021 50.4997 270.486 48.7009L274.684 52.4983C273.551 53.8974 272.152 54.9633 270.42 55.7628C268.688 56.4957 266.822 56.8954 264.69 56.8954C262.292 56.8954 260.093 56.3624 258.161 55.3631Z" fill="#5BBC6D"/>
<path d="M299.334 33.2445V56.4291H292.805V47.3684H283.811V56.4291H277.282V33.2445H283.811V41.972H292.738V33.2445H299.334Z" fill="#5BBC6D"/>
<path d="M114.46 75.8555V69.5169H112.059V68.2838H118.203V69.5169H115.802V75.8555H114.46Z" fill="#5E5F5F"/>
<path d="M119.614 75.8555V68.2838H120.944V71.4315H124.557V68.2838H125.888V75.8555H124.557V72.6646H120.944V75.8555H119.614Z" fill="#5E5F5F"/>
<path d="M127.832 75.8555V68.2838H133.446V69.4736H129.162V71.4423H132.959V72.6321H129.162V74.6657H133.5V75.8555H127.832Z" fill="#5E5F5F"/>
<path d="M140.971 75.9637C139.767 75.9637 138.714 75.5598 137.813 74.7522L138.613 73.8003C139.37 74.4565 140.167 74.7846 141.004 74.7846C141.415 74.7846 141.739 74.6981 141.977 74.525C142.222 74.3448 142.345 74.1068 142.345 73.8111C142.345 73.5299 142.23 73.3064 141.999 73.1405C141.768 72.9674 141.314 72.8016 140.636 72.6429C139.756 72.4338 139.114 72.1706 138.711 71.8533C138.314 71.5288 138.116 71.0348 138.116 70.3714C138.116 69.7224 138.357 69.196 138.84 68.7922C139.324 68.3811 139.944 68.1756 140.701 68.1756C141.739 68.1756 142.655 68.4929 143.448 69.1275L142.734 70.1334C142.035 69.6142 141.35 69.3546 140.679 69.3546C140.297 69.3546 139.994 69.4412 139.771 69.6142C139.554 69.7873 139.446 70.0073 139.446 70.2741C139.446 70.5697 139.565 70.8005 139.803 70.9663C140.048 71.125 140.528 71.2908 141.242 71.4639C142.078 71.6658 142.691 71.9362 143.081 72.2752C143.477 72.6141 143.676 73.09 143.676 73.703C143.676 74.4024 143.427 74.9541 142.929 75.3579C142.432 75.7617 141.779 75.9637 140.971 75.9637Z" fill="#5E5F5F"/>
<path d="M146.942 75.8555V69.5169H144.541V68.2838H150.685V69.5169H148.283V75.8555H146.942Z" fill="#5E5F5F"/>
<path d="M155.2 75.9745C154.198 75.9745 153.408 75.6896 152.831 75.12C152.262 74.5503 151.977 73.7246 151.977 72.6429V68.2838H153.307V72.5888C153.307 73.2811 153.477 73.8147 153.816 74.1897C154.154 74.5647 154.623 74.7522 155.222 74.7522C155.82 74.7522 156.285 74.5719 156.617 74.2114C156.956 73.8508 157.125 73.328 157.125 72.6429V68.2838H158.456V72.578C158.456 73.6813 158.167 74.525 157.591 75.1091C157.014 75.686 156.217 75.9745 155.2 75.9745Z" fill="#5E5F5F"/>
<path d="M160.282 75.8555V68.2838H163.105C164.288 68.2838 165.254 68.6443 166.004 69.3655C166.754 70.0794 167.129 70.9808 167.129 72.0696C167.129 73.1513 166.751 74.0527 165.993 74.7738C165.243 75.4949 164.281 75.8555 163.105 75.8555H160.282ZM161.613 74.644H163.105C163.891 74.644 164.526 74.4061 165.009 73.9301C165.492 73.447 165.734 72.8268 165.734 72.0696C165.734 71.3197 165.492 70.7031 165.009 70.22C164.526 69.7368 163.891 69.4953 163.105 69.4953H161.613V74.644Z" fill="#5E5F5F"/>
<path d="M168.743 75.8555V68.2838H174.357V69.4736H170.074V71.4423H173.87V72.6321H170.074V74.6657H174.411V75.8555H168.743Z" fill="#5E5F5F"/>
<path d="M175.99 75.8555V68.2838H177.223L181.279 73.5191V68.2838H182.588V75.8555H181.474L177.298 70.4688V75.8555H175.99Z" fill="#5E5F5F"/>
<path d="M186.396 75.8555V69.5169H183.994V68.2838H190.138V69.5169H187.737V75.8555H186.396Z" fill="#5E5F5F"/>
<path d="M191.225 71.518L191.473 68.2838H192.977V68.3379L191.917 71.518H191.225Z" fill="#5E5F5F"/>
<path d="M197.104 75.9637C195.9 75.9637 194.847 75.5598 193.946 74.7522L194.746 73.8003C195.503 74.4565 196.3 74.7846 197.137 74.7846C197.548 74.7846 197.872 74.6981 198.11 74.525C198.355 74.3448 198.478 74.1068 198.478 73.8111C198.478 73.5299 198.362 73.3064 198.132 73.1405C197.901 72.9674 197.447 72.8016 196.769 72.6429C195.889 72.4338 195.247 72.1706 194.843 71.8533C194.447 71.5288 194.248 71.0348 194.248 70.3714C194.248 69.7224 194.49 69.196 194.973 68.7922C195.456 68.3811 196.077 68.1756 196.834 68.1756C197.872 68.1756 198.788 68.4929 199.581 69.1275L198.867 70.1334C198.168 69.6142 197.483 69.3546 196.812 69.3546C196.43 69.3546 196.127 69.4412 195.903 69.6142C195.687 69.7873 195.579 70.0073 195.579 70.2741C195.579 70.5697 195.698 70.8005 195.936 70.9663C196.181 71.125 196.661 71.2908 197.375 71.4639C198.211 71.6658 198.824 71.9362 199.213 72.2752C199.61 72.6141 199.808 73.09 199.808 73.703C199.808 74.4024 199.559 74.9541 199.062 75.3579C198.564 75.7617 197.912 75.9637 197.104 75.9637Z" fill="#5E5F5F"/>
<path d="M204.616 75.8555V68.2838H205.946V72.0913L209.548 68.2838H211.182L208.034 71.5396L211.322 75.8555H209.71L207.125 72.4482L205.946 73.6597V75.8555H204.616Z" fill="#5E5F5F"/>
<path d="M212.454 75.8555V68.2838H218.068V69.4736H213.784V71.4423H217.581V72.6321H213.784V74.6657H218.122V75.8555H212.454Z" fill="#5E5F5F"/>
<path d="M221.928 75.8555V72.8701L218.921 68.2838H220.49L222.61 71.637L224.751 68.2838H226.277L223.27 72.8376V75.8555H221.928Z" fill="#5E5F5F"/>
<path d="M232.546 75.8555V69.5169H230.145V68.2838H236.289V69.5169H233.887V75.8555H232.546Z" fill="#5E5F5F"/>
<path d="M243.745 74.8387C242.995 75.6031 242.047 75.9853 240.901 75.9853C239.754 75.9853 238.809 75.6067 238.067 74.8495C237.324 74.0924 236.952 73.1657 236.952 72.0696C236.952 70.988 237.327 70.0649 238.077 69.3006C238.827 68.5362 239.776 68.154 240.922 68.154C242.069 68.154 243.013 68.5326 243.756 69.2897C244.499 70.0469 244.87 70.9735 244.87 72.0696C244.87 73.1513 244.495 74.0743 243.745 74.8387ZM239.072 73.9842C239.563 74.5034 240.179 74.763 240.922 74.763C241.665 74.763 242.274 74.5034 242.75 73.9842C243.233 73.465 243.475 72.8268 243.475 72.0696C243.475 71.3197 243.23 70.6851 242.739 70.1659C242.256 69.6395 241.643 69.3763 240.901 69.3763C240.158 69.3763 239.545 69.6359 239.062 70.1551C238.586 70.6743 238.348 71.3125 238.348 72.0696C238.348 72.8196 238.589 73.4578 239.072 73.9842Z" fill="#5E5F5F"/>
<path d="M252.371 75.9637C251.166 75.9637 250.114 75.5598 249.212 74.7522L250.013 73.8003C250.77 74.4565 251.567 74.7846 252.403 74.7846C252.814 74.7846 253.139 74.6981 253.377 74.525C253.622 74.3448 253.744 74.1068 253.744 73.8111C253.744 73.5299 253.629 73.3064 253.398 73.1405C253.168 72.9674 252.713 72.8016 252.035 72.6429C251.156 72.4338 250.514 72.1706 250.11 71.8533C249.713 71.5288 249.515 71.0348 249.515 70.3714C249.515 69.7224 249.757 69.196 250.24 68.7922C250.723 68.3811 251.343 68.1756 252.1 68.1756C253.139 68.1756 254.054 68.4929 254.848 69.1275L254.134 70.1334C253.434 69.6142 252.749 69.3546 252.079 69.3546C251.696 69.3546 251.394 69.4412 251.17 69.6142C250.954 69.7873 250.846 70.0073 250.846 70.2741C250.846 70.5697 250.965 70.8005 251.202 70.9663C251.448 71.125 251.927 71.2908 252.641 71.4639C253.478 71.6658 254.091 71.9362 254.48 72.2752C254.877 72.6141 255.075 73.09 255.075 73.703C255.075 74.4024 254.826 74.9541 254.328 75.3579C253.831 75.7617 253.178 75.9637 252.371 75.9637Z" fill="#5E5F5F"/>
<path d="M259.744 75.9745C258.742 75.9745 257.952 75.6896 257.375 75.12C256.805 74.5503 256.52 73.7246 256.52 72.6429V68.2838H257.851V72.5888C257.851 73.2811 258.02 73.8147 258.359 74.1897C258.698 74.5647 259.167 74.7522 259.766 74.7522C260.364 74.7522 260.829 74.5719 261.161 74.2114C261.5 73.8508 261.669 73.328 261.669 72.6429V68.2838H263V72.578C263 73.6813 262.711 74.525 262.134 75.1091C261.557 75.686 260.761 75.9745 259.744 75.9745Z" fill="#5E5F5F"/>
<path d="M268.341 75.9853C267.245 75.9853 266.329 75.6103 265.594 74.8604C264.858 74.1032 264.491 73.1729 264.491 72.0696C264.491 70.9735 264.858 70.0469 265.594 69.2897C266.329 68.5326 267.263 68.154 268.395 68.154C269.052 68.154 269.607 68.2549 270.061 68.4569C270.523 68.6588 270.955 68.9508 271.359 69.333L270.505 70.3173C269.827 69.69 269.12 69.3763 268.385 69.3763C267.664 69.3763 267.065 69.6359 266.589 70.1551C266.12 70.6743 265.886 71.3125 265.886 72.0696C265.886 72.8196 266.124 73.4578 266.6 73.9842C267.076 74.5034 267.671 74.763 268.385 74.763C268.817 74.763 269.199 74.6837 269.531 74.525C269.863 74.3592 270.205 74.1104 270.559 73.7787L271.413 74.644C270.988 75.0911 270.537 75.4264 270.061 75.65C269.585 75.8735 269.012 75.9853 268.341 75.9853Z" fill="#5E5F5F"/>
<path d="M276.116 75.9853C275.02 75.9853 274.104 75.6103 273.368 74.8604C272.633 74.1032 272.265 73.1729 272.265 72.0696C272.265 70.9735 272.633 70.0469 273.368 69.2897C274.104 68.5326 275.038 68.154 276.17 68.154C276.826 68.154 277.381 68.2549 277.836 68.4569C278.297 68.6588 278.73 68.9508 279.134 69.333L278.279 70.3173C277.601 69.69 276.895 69.3763 276.159 69.3763C275.438 69.3763 274.839 69.6359 274.364 70.1551C273.895 70.6743 273.66 71.3125 273.66 72.0696C273.66 72.8196 273.898 73.4578 274.374 73.9842C274.85 74.5034 275.445 74.763 276.159 74.763C276.592 74.763 276.974 74.6837 277.306 74.525C277.637 74.3592 277.98 74.1104 278.333 73.7787L279.188 74.644C278.762 75.0911 278.312 75.4264 277.836 75.65C277.36 75.8735 276.787 75.9853 276.116 75.9853Z" fill="#5E5F5F"/>
<path d="M280.586 75.8555V68.2838H286.2V69.4736H281.917V71.4423H285.713V72.6321H281.917V74.6657H286.254V75.8555H280.586Z" fill="#5E5F5F"/>
<path d="M290.483 75.9637C289.278 75.9637 288.226 75.5598 287.324 74.7522L288.125 73.8003C288.882 74.4565 289.679 74.7846 290.515 74.7846C290.926 74.7846 291.251 74.6981 291.489 74.525C291.734 74.3448 291.856 74.1068 291.856 73.8111C291.856 73.5299 291.741 73.3064 291.51 73.1405C291.279 72.9674 290.825 72.8016 290.147 72.6429C289.268 72.4338 288.626 72.1706 288.222 71.8533C287.825 71.5288 287.627 71.0348 287.627 70.3714C287.627 69.7224 287.869 69.196 288.352 68.7922C288.835 68.3811 289.455 68.1756 290.212 68.1756C291.251 68.1756 292.166 68.4929 292.96 69.1275L292.246 70.1334C291.546 69.6142 290.861 69.3546 290.191 69.3546C289.808 69.3546 289.506 69.4412 289.282 69.6142C289.066 69.7873 288.957 70.0073 288.957 70.2741C288.957 70.5697 289.076 70.8005 289.314 70.9663C289.56 71.125 290.039 71.2908 290.753 71.4639C291.59 71.6658 292.203 71.9362 292.592 72.2752C292.989 72.6141 293.187 73.09 293.187 73.703C293.187 74.4024 292.938 74.9541 292.44 75.3579C291.943 75.7617 291.29 75.9637 290.483 75.9637Z" fill="#5E5F5F"/>
<path d="M297.296 75.9637C296.092 75.9637 295.039 75.5598 294.137 74.7522L294.938 73.8003C295.695 74.4565 296.492 74.7846 297.328 74.7846C297.739 74.7846 298.064 74.6981 298.302 74.525C298.547 74.3448 298.67 74.1068 298.67 73.8111C298.67 73.5299 298.554 73.3064 298.323 73.1405C298.093 72.9674 297.638 72.8016 296.961 72.6429C296.081 72.4338 295.439 72.1706 295.035 71.8533C294.639 71.5288 294.44 71.0348 294.44 70.3714C294.44 69.7224 294.682 69.196 295.165 68.7922C295.648 68.3811 296.268 68.1756 297.025 68.1756C298.064 68.1756 298.98 68.4929 299.773 69.1275L299.059 70.1334C298.36 69.6142 297.674 69.3546 297.004 69.3546C296.622 69.3546 296.319 69.4412 296.095 69.6142C295.879 69.7873 295.771 70.0073 295.771 70.2741C295.771 70.5697 295.89 70.8005 296.128 70.9663C296.373 71.125 296.852 71.2908 297.566 71.4639C298.403 71.6658 299.016 71.9362 299.405 72.2752C299.802 72.6141 300 73.09 300 73.703C300 74.4024 299.751 74.9541 299.254 75.3579C298.756 75.7617 298.104 75.9637 297.296 75.9637Z" fill="#5E5F5F"/>
</svg>
