<?xml version="1.0" encoding="utf-8"?>
<!-- Generator: Adobe Illustrator 22.0.0, SVG Export Plug-In . SVG Version: 6.00 Build 0)  -->
<svg version="1.1" id="Layer_1" xmlns="http://www.w3.org/2000/svg" xmlns:xlink="http://www.w3.org/1999/xlink" x="0px" y="0px"
	 viewBox="0 0 130 50" style="enable-background:new 0 0 130 50;" xml:space="preserve">
<style type="text/css">
	.st0{fill:#592C82;}
</style>
<g>
	<g>
		<path class="st0" d="M11.5,15.5c0-0.8-0.4-1.5-2.3-1.5C7.4,14,7,14.6,7,15.5v2.3c0,0.7,0.2,1.4,0.9,1.9l6.3,5.4
			c0.9,0.7,1.4,1.7,1.4,2.6l0,3.4c0,2-2.4,3.2-6.3,3.2c-4.4,0-6.4-1-6.4-3.2v-3h3.9l0,2.8c0,1,0.8,1.6,2.5,1.6
			c1.6,0,2.4-0.6,2.4-1.6l0-3c0-0.7-0.3-1.3-1.1-2.1l-5.8-5C3.6,19.9,3,19.2,3,18.1v-2.6c0-2.1,2.2-3.2,6.2-3.2c4.4,0,6.2,1,6.2,3
			l0,2.7l-3.9,0V15.5z"/>
		<path class="st0" d="M49.5,15.9c0-2.1,1.6-3.6,6.9-3.6c5.3,0,6.9,1.5,6.9,3.6l0,14.6c0,2.1-1.6,3.6-6.9,3.6
			c-5.3,0-6.9-1.5-6.9-3.6L49.5,15.9z M53.4,30.5c0,1.2,0.5,2,3,2c2.5,0,3-0.8,3-2l0-14.5c0-1.2-0.5-2-3-2c-2.5,0-3,0.8-3,2V30.5z"
			/>
		<path class="st0" d="M65.5,12.5h6.3c5.1,0,6.6,0.8,6.6,3.3l0,5.3c0,2.4-1.5,3.3-6.6,3.3h-2.3V34h-3.9V12.5z M71.3,22.6
			c1.8,0,3-0.2,3-1.3v-5.8c0-1.1-1.3-1.3-3-1.3h-1.9v8.5H71.3z"/>
		<path class="st0" d="M88.1,15.4c0-0.8-0.4-1.5-2.3-1.5c-1.9,0-2.3,0.6-2.3,1.5v2.3c0,0.7,0.2,1.4,0.9,1.9l6.3,5.4
			c0.9,0.7,1.4,1.7,1.4,2.6V31c0,2-2.4,3.2-6.3,3.2c-4.4,0-6.4-1-6.4-3.2v-2.9h3.9v2.8c0,1,0.8,1.6,2.5,1.6c1.6,0,2.4-0.6,2.4-1.6
			v-3c0-0.7-0.3-1.3-1.1-2.1l-5.8-5c-1.1-0.9-1.7-1.6-1.7-2.7v-2.6c0-2.1,2.2-3.2,6.2-3.2c4.4,0,6.2,1,6.2,3v2.7h-3.9V15.4z"/>
		<path class="st0" d="M117.2,15.4c0-0.8-0.4-1.5-2.3-1.5c-1.8,0-2.3,0.6-2.3,1.5v2.3c0,0.7,0.2,1.4,0.9,1.9l6.3,5.4
			c0.9,0.7,1.4,1.7,1.4,2.6V31c0,2-2.4,3.2-6.3,3.2c-4.4,0-6.4-1-6.4-3.2v-3h3.9l0,2.8c0,1,0.8,1.6,2.5,1.6c1.6,0,2.4-0.6,2.4-1.6
			v-3c0-0.7-0.3-1.3-1.1-2.1l-5.8-5c-1.1-0.9-1.7-1.6-1.7-2.7v-2.6c0-2.1,2.2-3.2,6.2-3.2c4.4,0,6.2,1,6.2,3v2.7h-3.9V15.4z"/>
		<polygon class="st0" points="27.7,12.5 31.7,12.5 23.1,39.5 19.1,39.5 		"/>
		<polygon class="st0" points="21.5,29.3 16.2,12.5 20.1,12.5 23.5,23.1 		"/>
		<polygon class="st0" points="104.3,12.5 108.3,12.5 99.6,39.5 95.7,39.5 		"/>
		<polygon class="st0" points="98.1,29.2 92.8,12.5 96.7,12.5 100.1,23 		"/>
		<g>
			<path class="st0" d="M47,34L47,34l0-18.2c0-2.4-1.5-3.3-6.6-3.3h-7.6l0,21.5h3.9l0,0l0-19.9h3.2c1.8,0,3,0.2,3,1.3V34H47z"/>
		</g>
		<path class="st0" d="M122.8,15.1c0-1.4,1.2-2.5,2.5-2.5c1.4,0,2.5,1.1,2.5,2.5c0,1.5-1.2,2.5-2.5,2.5
			C123.9,17.6,122.8,16.6,122.8,15.1z M125.3,17.2c1.1,0,2-0.9,2-2.1c0-1.2-0.9-2.1-2-2.1c-1.1,0-2,0.9-2,2.1
			C123.3,16.3,124.1,17.2,125.3,17.2z M124.8,16.6h-0.4v-2.9h1.1c0.7,0,1,0.3,1,0.8c0,0.5-0.3,0.7-0.8,0.8l0.8,1.3H126l-0.8-1.3
			h-0.5V16.6z M125.3,15c0.4,0,0.7,0,0.7-0.5c0-0.4-0.3-0.4-0.6-0.4h-0.6V15H125.3z"/>
	</g>
</g>
</svg>
