<svg xmlns="http://www.w3.org/2000/svg" viewBox="0 0 215.6 229"><title>NCL12_LogoColor_VF</title><path d="M135,80.2c-3.7,4.6-6.2,2.1-9.2,9.9,2.2,11.8,3.9,21,2.5,22.4-4.3,4.3-8.6-.4-11.3-1.4,1.1,2.4-1.7,4.3-2.1,6.2s-1.3,4.2-4.7,2.7,4.6,4.1-3.1,4c-1.8,0-8.2,18.7-17.2,12.2s-17.8-9-18.4-8-5.9,5.9-11.1,12.5a147.1,147.1,0,0,0,6.7,20.8H225a146.3,146.3,0,0,0,6.3-19c-3.6-7.8-7.6-14.3-14.1-14.2-6.2,1.7-20.8,13.4-23.8,5.8s-10.3-2.3-8.1-10c-2.1.9-4.2-1.4-4.2-1.4.3-2.9-2.2-6.5-2.7-7.6-1.1-2.6-6.1,2.3-7.9-1.1s4.9-12.5-.1-20.5c-5.5-.9-1-.2-2.2-2.7a41,41,0,0,0-4.5-7.2,34.5,34.5,0,0,1-2.6-2.7c-1.4-1.9,4.2,6.7,2.2,9.8,0,0-.7-5.2-6.1-10.4s-4.7-17.5-2.5-21.7a66.1,66.1,0,0,1,3.9-6.8q-9.7-.2-19.3-.1C141,65,137.3,76.8,135,80.2Z" transform="translate(-37.9 -33.8)" style="fill:#b0b7bc"/><path d="M102.5,213.3a200.1,200.1,0,0,0,43.6,31.9,200,200,0,0,0,43.6-31.9Z" transform="translate(-37.9 -33.8)" style="fill:#b0b7bc"/><path d="M172,103.4H157.1l-5.7-5.7a6.3,6.3,0,1,0-5.1,2.5,6.2,6.2,0,0,0,4.4-1.8l5.9,6h15.1A2.2,2.2,0,0,1,172,103.4Z" transform="translate(-37.9 -33.8)" style="fill:#00549e"/><path d="M222.7,154.8l-17.9-20-1,.3,18.4,20.7h4.9l.3-.9Z" transform="translate(-37.9 -33.8)" style="fill:#00549e"/><path d="M152.2,126.9a3.8,3.8,0,1,1,3.8-3.8,3.8,3.8,0,0,1-3.8,3.8" transform="translate(-37.9 -33.8)" style="fill:#848689"/><path d="M179.4,161.5,157,139.3H139.5l-7.3-7.3a6.3,6.3,0,1,0-.8.6l7.7,7.7h17.4L178,161.5Z" transform="translate(-37.9 -33.8)" style="fill:#00549e"/><path d="M225.2,178.3" transform="translate(-37.9 -33.8)" style="fill:#391020"/><path d="M201.9,161.5,164.7,124h-5.9a6.2,6.2,0,1,0,0,.9h5.5l36.3,36.6Z" transform="translate(-37.9 -33.8)" style="fill:#00549e"/><path d="M173.6,227.3H150.1a6.3,6.3,0,1,0,0,1.2h22Z" transform="translate(-37.9 -33.8)" style="fill:#00549e"/><path d="M199.5,212.8l-1.2,1.3c-13.4,13.8-29.8,26.2-48.9,36.7l-3.8,2.1-3.8-2.1c-19.1-10.5-35.5-22.9-48.9-36.7l-1.2-1.3H80.3c2.1,2.5,4.3,4.9,6.6,7.2,14,14.5,31.1,27.4,50.9,38.3l7.9,4.4,7.9-4.4c19.8-11,37-23.8,50.9-38.3,2.3-2.3,4.4-4.8,6.6-7.2Z" transform="translate(-37.9 -33.8)" style="fill:#ef4135"/><path d="M41.9,132.9A174.8,174.8,0,0,0,49.5,161h9.2a163.9,163.9,0,0,1-8.4-29.6,229.5,229.5,0,0,1-3.6-35.8V90.8l4.2-2.3A70.2,70.2,0,0,0,70.2,73.2,68.4,68.4,0,0,0,83.3,50.6L85,46l4.9-.5a507.3,507.3,0,0,1,111.7,0l4.9.5,1.6,4.6a68.9,68.9,0,0,0,13.1,22.6,70,70,0,0,0,19.4,15.3l4.2,2.3v4.8a229,229,0,0,1-3.6,35.8,163.4,163.4,0,0,1-8.4,29.6h9.2a174.6,174.6,0,0,0,7.6-28.1,237.6,237.6,0,0,0,3.7-37.1l.3-10L244.7,81a61.6,61.6,0,0,1-17.1-13.4,60.2,60.2,0,0,1-11.5-19.9L212.7,38l-10.2-1.1a520.6,520.6,0,0,0-113.6,0L78.7,38l-3.5,9.7A60.1,60.1,0,0,1,63.8,67.5,61.6,61.6,0,0,1,46.7,81l-8.8,4.8.3,10A238.4,238.4,0,0,0,41.9,132.9Z" transform="translate(-37.9 -33.8)" style="fill:#ef4135"/><path d="M97.2,206.3h-16L88.5,179c.7-2.6-.9-4.8-3.6-4.8H70.5l-8.6,32.1h-16c-4.4,0-7.1-3.6-5.9-8l8.2-30.5h57.7c5.3,0,8.5,4.3,7.1,9.7l-5.6,20.8C106.2,202.7,101.6,206.3,97.2,206.3Z" transform="translate(-37.9 -33.8)" style="fill:#ef4135"/><path d="M140.6,199.9h38.5l-1.7,6.4H119.6c-5.3,0-8.5-4.3-7-9.6l5.1-19.2c1.4-5.3,6.9-9.7,12.2-9.7h57.8l-1.7,6.4H147.5a6.8,6.8,0,0,0-6.1,4.8l-4.3,16.1C136.4,197.8,138,199.9,140.6,199.9Z" transform="translate(-37.9 -33.8)" style="fill:#ef4135"/><path d="M200.6,167.8h16.1l-7.3,27.3c-.7,2.6.9,4.8,3.5,4.8h38.5l-1.7,6.4H191.8c-5.3,0-8.5-4.3-7-9.6l5.6-20.9A11.2,11.2,0,0,1,200.6,167.8Z" transform="translate(-37.9 -33.8)" style="fill:#ef4135"/><path d="M150.7,150h-43a6.3,6.3,0,1,0,0,1.1h42.8l10.4,10.4h1.3Z" transform="translate(-37.9 -33.8)" style="fill:#00549e"/></svg>