<svg xmlns="http://www.w3.org/2000/svg" viewBox="0 0 2125.88 366.28"><defs><style>.cls-2{fill:#fff;}</style></defs><path class="cls-2" d="M153,282.07a132.89,132.89,0,0,1-52.07-10.54,122.7,122.7,0,0,1-22.41-12.19,156.25,156.25,0,0,1-20.1-16.48A129.64,129.64,0,0,1,30,200.67,133.81,133.81,0,0,1,30,96.54,138.46,138.46,0,0,1,58.38,54,138.43,138.43,0,0,1,100.9,25.69a133,133,0,0,1,103.81,0A128.89,128.89,0,0,1,247.21,54L207.67,93.9a73.37,73.37,0,0,0-24.88-17A77.63,77.63,0,0,0,153,71.16a74.74,74.74,0,0,0-30.15,6.1,78.65,78.65,0,0,0-41.19,41.19,77.21,77.21,0,0,0,0,60.14,78.2,78.2,0,0,0,41.19,41.36A74.66,74.66,0,0,0,153,226a77.53,77.53,0,0,0,29.82-5.77,73.22,73.22,0,0,0,24.88-17l39.54,39.54a126.47,126.47,0,0,1-42.51,28.67A132.12,132.12,0,0,1,153,282.07Z" transform="translate(-19.5 9.41)"/><path class="cls-2" d="M434.16,97.82H459.3L381.33,209v67.13H342.12V209L264.38,97.82h47.75l49.6,70.82,49.6-70.82Z" transform="translate(-19.5 9.41)"/><path class="cls-2" d="M552,276.14H467.14V98.05h74.28a80.73,80.73,0,0,1,16.49,1.61,58.32,58.32,0,0,1,14.19,4.84,46.72,46.72,0,0,1,19.38,16.61q8.3,12.46,8.3,29.53,0,15.23-6.92,26.53A48.69,48.69,0,0,1,608,195.4a54.31,54.31,0,0,1,5.19,23.76,56.45,56.45,0,0,1-4.84,23.3,53.39,53.39,0,0,1-13.84,18.68,56.8,56.8,0,0,1-19.15,11.19A69.84,69.84,0,0,1,552,276.14Zm-45.67-112.8h39a26.19,26.19,0,0,0,4.15-.58,19,19,0,0,0,5.54-2,11.93,11.93,0,0,0,4-3.46q1.5-2.08,1.5-6.69a28.25,28.25,0,0,0-.35-4.15,8.88,8.88,0,0,0-2.08-4.38,12.73,12.73,0,0,0-5.65-3.46,34.7,34.7,0,0,0-11.07-1.38H506.36Zm0,73.59H552a45.49,45.49,0,0,0,5-.46,25.86,25.86,0,0,0,7.38-2.19,18.29,18.29,0,0,0,6.69-5.31q2.88-3.57,2.88-9.8,0-4.84-1.61-7.27a11.94,11.94,0,0,0-3.46-3.58q-7.61-5.76-23.07-5.77H506.36Z" transform="translate(-19.5 9.41)"/><path class="cls-2" d="M667.83,137v26.53H740v39.22h-72.2v34.14h74.74v39.22h-114V97.82h114V137Z" transform="translate(-19.5 9.41)"/><path class="cls-2" d="M905,276.14H857l-32.76-46.83h-20.3v46.83H764.72V97.82h65.74a95.67,95.67,0,0,1,27.8,3.81,69.7,69.7,0,0,1,22.26,11.19,70.63,70.63,0,0,1,9.57,9.57,51.66,51.66,0,0,1,7,11.19,63.44,63.44,0,0,1,6,27.45A71.42,71.42,0,0,1,898,187.79a61.88,61.88,0,0,1-14.53,21.68,60.33,60.33,0,0,1-16.84,12Zm-101-86h26.76q16.38.46,25.37-8.54,7.84-7.84,7.84-20.53,0-24-33.45-24H803.93Z" transform="translate(-19.5 9.41)"/><path class="cls-2" d="M1114.92,279.43h-4.61a163.54,163.54,0,0,1-59.65-13.18,121.48,121.48,0,0,1-26-16.15,74,74,0,0,1-17.47-20.1l47.78-27.68a27.37,27.37,0,0,0,7.74,7.91,70.24,70.24,0,0,0,12.85,7.25,86,86,0,0,0,16.31,5.27,83.27,83.27,0,0,0,18.12,2h1.65a69.53,69.53,0,0,0,18.29-1.32,87.48,87.48,0,0,0,21.26-6.92q18.12-8.23,19.77-22.08a12.5,12.5,0,0,0-.66-6.1,13.14,13.14,0,0,0-2.64-3.79q-5.93-6.59-18.12-9.89Q1134,170,1113.93,170q-5.61,0-16-.66a152.69,152.69,0,0,1-22.57-3.29q-30.65-7.25-48.11-24.72-19.12-19.77-17.14-48.77v-.33a76.86,76.86,0,0,1,6.43-26A63.48,63.48,0,0,1,1032.2,44.8q16.81-16.14,43.17-22.74a143.08,143.08,0,0,1,35.43-4.28,144.62,144.62,0,0,1,36.41,4.61q20.43,4.94,35.43,14.5T1206.2,59l-46.79,29.66q-2-3-8.24-6.92t-17.47-6.59a102.56,102.56,0,0,0-22.74-2.8,76.64,76.64,0,0,0-21.42,2.47q-8.57,2-13.35,4.94a27.84,27.84,0,0,0-7.25,6.1,15.62,15.62,0,0,0-3.13,5.93,20,20,0,0,0-.66,4.12,13.69,13.69,0,0,0,.82,5.44,9.41,9.41,0,0,0,1.81,2.8q4.94,4.94,17.79,8.07a119.59,119.59,0,0,0,28.34,3.13q31.64,0,55.86,8.4t39,24.22A69.4,69.4,0,0,1,1223,171.51a61.92,61.92,0,0,1,3,27.85,73.55,73.55,0,0,1-14.83,38.39q-12.85,17-35.26,27.85a142.15,142.15,0,0,1-29.82,10.22A140.78,140.78,0,0,1,1114.92,279.43Z" transform="translate(-19.5 9.41)"/><path class="cls-2" d="M1350.47,173.95l101,102.19h-55.13l-75.89-76.82-21.68,18v58.82h-39.22V97.82h39.22V166.1l81-68.28h60.9Z" transform="translate(-19.5 9.41)"/><path class="cls-2" d="M1612.29,97.82h25.14l-78,111.19v67.13h-39.22V209L1442.51,97.82h47.75l49.6,70.82,49.6-70.82Z" transform="translate(-19.5 9.41)"/><path class="cls-2" d="M1645.27,276.14V97.82h39.22v139.1h75.89v39.22Z" transform="translate(-19.5 9.41)"/><path class="cls-2" d="M1772.37,276.14V97.82h39.22V276.14Z" transform="translate(-19.5 9.41)"/><path class="cls-2" d="M2007.66,97.82V276.14h-42.21l-91.58-119.26V276.14h-39.22V97.82H1878l90.43,117.88V97.82h39.22Z" transform="translate(-19.5 9.41)"/><path class="cls-2" d="M2070.64,137v26.53h72.2v39.22h-72.2v34.14h74.74v39.22h-114V97.82h114V137Z" transform="translate(-19.5 9.41)"/></svg>
