<svg xmlns="http://www.w3.org/2000/svg" viewBox="0 0 2435.27 360.59"><title>Cyber Skyline Logo Horizontal White Vector</title><path d="M2302.64,89.57A113.49,113.49,0,0,1,2316.45,312" transform="translate(-30.26 -24.15)" style="fill:none;stroke:#fff;stroke-miterlimit:10;stroke-width:22px;opacity:0.4"/><path d="M2410.16,236.35A126.86,126.86,0,0,1,2288,328.9q-6.16,0-12.19-.58" transform="translate(-30.26 -24.15)" style="fill:none;stroke:#fff;stroke-miterlimit:10;stroke-width:22px"/><path d="M2323.7,335a138.07,138.07,0,0,1-93.6-8.1" transform="translate(-30.26 -24.15)" style="fill:#3c8ccb;stroke:#fff;stroke-miterlimit:10;stroke-width:22px;opacity:0.6000000000000001"/><path d="M2344.52,73.12a141.19,141.19,0,0,1,61.05,207.25" transform="translate(-30.26 -24.15)" style="fill:none;stroke:#fff;stroke-miterlimit:10;stroke-width:22px;opacity:0.65"/><path d="M2211.37,101.42a126.58,126.58,0,0,1,157.11,3" transform="translate(-30.26 -24.15)" style="fill:none;stroke:#fff;stroke-miterlimit:10;stroke-width:22px"/><path d="M2170.49,97.74a157.15,157.15,0,0,1,270.75,138.62" transform="translate(-30.26 -24.15)" style="fill:none;stroke:#fff;stroke-miterlimit:10;stroke-width:24px;opacity:0.5"/><path d="M2127.83,157.75A163.24,163.24,0,0,1,2325.56,40" transform="translate(-30.26 -24.15)" style="fill:none;stroke:#fff;stroke-miterlimit:10;stroke-width:22px"/><path d="M2396.48,289.55a139.61,139.61,0,0,1-61.29,43.67" transform="translate(-30.26 -24.15)" style="fill:none;stroke:#fff;stroke-miterlimit:10;stroke-width:18px;opacity:0.63"/><path d="M2151.58,174A139.47,139.47,0,0,1,2308.63,64.32" transform="translate(-30.26 -24.15)" style="fill:none;stroke:#fff;stroke-miterlimit:10;stroke-width:18px;opacity:0.65"/><path d="M2454.53,201.64A166.62,166.62,0,0,1,2287.9,368.26" transform="translate(-30.26 -24.15)" style="fill:none;stroke:#fff;stroke-miterlimit:10;stroke-width:22px"/><path d="M2379.74,63.27a163.07,163.07,0,0,1,65.1,82.28" transform="translate(-30.26 -24.15)" style="fill:none;stroke:#fff;stroke-miterlimit:10;stroke-width:22px"/><path d="M2254.72,161.41a48.14,48.14,0,0,1,66.47,67.21" transform="translate(-30.26 -24.15)" style="fill:none;stroke:#fff;stroke-miterlimit:10;stroke-width:8px;opacity:0.4"/><path d="M2270.69,142.69a59.88,59.88,0,0,1,70.16,51" transform="translate(-30.26 -24.15)" style="fill:none;stroke:#fff;stroke-miterlimit:10;stroke-width:8px"/><path d="M2214.77,200.89A66.66,66.66,0,0,1,2340,169.64" transform="translate(-30.26 -24.15)" style="fill:none;stroke:#fff;stroke-miterlimit:10;stroke-width:10px;opacity:0.5"/><path d="M2272.7,130.9a69.13,69.13,0,0,1,43.76,8.13" transform="translate(-30.26 -24.15)" style="fill:none;stroke:#fff;stroke-miterlimit:10;stroke-width:10px"/><path d="M2308,241.24A48.14,48.14,0,0,1,2241.48,174" transform="translate(-30.26 -24.15)" style="fill:none;stroke:#fff;stroke-miterlimit:10;stroke-width:10px;opacity:0.4"/><path d="M2232.63,224.34a53.83,53.83,0,0,1,13.2-63.65q2-1.73,4.06-3.22" transform="translate(-30.26 -24.15)" style="fill:none;stroke:#fff;stroke-miterlimit:10;stroke-width:10px"/><path d="M2232.73,168.68a58.7,58.7,0,0,1,10.09-11.43,58.06,58.06,0,0,1,22.08-12.09" transform="translate(-30.26 -24.15)" style="fill:#3c8ccb;stroke:#fff;stroke-miterlimit:10;stroke-width:10px;opacity:0.7000000000000001"/><path d="M2299.15,258.18A59.89,59.89,0,0,1,2221.82,209" transform="translate(-30.26 -24.15)" style="fill:none;stroke:#fff;stroke-miterlimit:10;stroke-width:10px;opacity:0.7000000000000001"/><path d="M2333.8,212a53.69,53.69,0,0,1-51,42.89" transform="translate(-30.26 -24.15)" style="fill:none;stroke:#fff;stroke-miterlimit:10;stroke-width:10px"/><path d="M2344.78,170.68a69.24,69.24,0,0,1-30.34,92.78" transform="translate(-30.26 -24.15)" style="fill:none;stroke:#fff;stroke-miterlimit:10;stroke-width:10px;opacity:0.6000000000000001"/><path d="M2222.16,203.52a59.35,59.35,0,0,1,7.4-31.06" transform="translate(-30.26 -24.15)" style="fill:none;stroke:#fff;stroke-miterlimit:10;stroke-width:6px;opacity:0.4"/><path d="M2332.65,172.1a59.13,59.13,0,0,1-12.57,73.62,60.93,60.93,0,0,1-7,5.26" transform="translate(-30.26 -24.15)" style="fill:none;stroke:#fff;stroke-miterlimit:10;stroke-width:6px;opacity:0.63"/><path d="M2228.14,247.81a70.7,70.7,0,0,1,6.75-99.74" transform="translate(-30.26 -24.15)" style="fill:none;stroke:#fff;stroke-miterlimit:10;stroke-width:10px"/><path d="M2290,271.75a69.24,69.24,0,0,1-43.76-8.13" transform="translate(-30.26 -24.15)" style="fill:none;stroke:#fff;stroke-miterlimit:10;stroke-width:10px"/><path d="M163.72,384.74a133.06,133.06,0,0,1-52.07-10.54A122.3,122.3,0,0,1,89.25,362a156,156,0,0,1-20.11-16.47A129.82,129.82,0,0,1,40.8,303.34a133.86,133.86,0,0,1,0-104.13A138.46,138.46,0,0,1,69.14,156.7a138.46,138.46,0,0,1,42.51-28.34,133,133,0,0,1,103.81,0A129,129,0,0,1,258,156.7l-39.54,39.87a73.55,73.55,0,0,0-24.88-17,77.71,77.71,0,0,0-29.83-5.77,74.74,74.74,0,0,0-30.15,6.1,78.63,78.63,0,0,0-41.19,41.19,77.19,77.19,0,0,0,0,60.15,78.19,78.19,0,0,0,41.19,41.35,74.57,74.57,0,0,0,30.15,6.1A77.52,77.52,0,0,0,193.55,323a73.26,73.26,0,0,0,24.88-17L258,345.53a126.57,126.57,0,0,1-42.51,28.67A132.26,132.26,0,0,1,163.72,384.74Z" transform="translate(-30.26 -24.15)" style="fill:#fff"/><path d="M444.92,200.5h25.14l-78,111.18v67.13H352.88V311.68L275.14,200.5h47.75l49.59,70.81,49.6-70.81Z" transform="translate(-30.26 -24.15)" style="fill:#fff"/><path d="M562.79,378.81H477.9V200.73h74.28a81,81,0,0,1,16.49,1.61,58.57,58.57,0,0,1,14.19,4.84,46.89,46.89,0,0,1,19.38,16.61q8.29,12.47,8.3,29.53,0,15.23-6.92,26.53a48.7,48.7,0,0,1,15.11,18.22,54.32,54.32,0,0,1,5.19,23.76,56.44,56.44,0,0,1-4.84,23.3,53.54,53.54,0,0,1-13.84,18.69A56.75,56.75,0,0,1,586.09,375,69.78,69.78,0,0,1,562.79,378.81ZM517.12,266h39a25.74,25.74,0,0,0,4.15-.58,18.91,18.91,0,0,0,5.54-2,12,12,0,0,0,4-3.46q1.5-2.07,1.5-6.69a28.4,28.4,0,0,0-.35-4.15,8.78,8.78,0,0,0-2.08-4.38,12.58,12.58,0,0,0-5.65-3.46q-3.91-1.4-11.07-1.39H517.12Zm0,73.58h45.67a45.45,45.45,0,0,0,5-.46,25.78,25.78,0,0,0,7.38-2.19,18.24,18.24,0,0,0,6.69-5.3q2.88-3.58,2.89-9.81c0-3.23-.55-5.65-1.62-7.26a11.89,11.89,0,0,0-3.46-3.58q-7.61-5.76-23.07-5.77H517.12Z" transform="translate(-30.26 -24.15)" style="fill:#fff"/><path d="M678.59,239.71v26.53h72.2v39.21h-72.2v34.14h74.74v39.22h-114V200.5h114v39.21Z" transform="translate(-30.26 -24.15)" style="fill:#fff"/><path d="M915.73,378.81h-48L835,332h-20.3v46.83H775.47V200.5h65.75A95.52,95.52,0,0,1,869,204.3a69.66,69.66,0,0,1,22.26,11.19,70.44,70.44,0,0,1,9.58,9.57,51.54,51.54,0,0,1,7,11.19,63.4,63.4,0,0,1,6,27.45,71.46,71.46,0,0,1-5.07,26.76,61.87,61.87,0,0,1-14.54,21.68,60.18,60.18,0,0,1-16.84,12Zm-101-86h26.76q16.38.47,25.37-8.54,7.84-7.85,7.85-20.53,0-24-33.45-24H814.69Z" transform="translate(-30.26 -24.15)" style="fill:#fff"/><path d="M1125.68,382.1h-4.62a157.81,157.81,0,0,1-30.48-3.78,156.14,156.14,0,0,1-29.17-9.4,121.62,121.62,0,0,1-26-16.14,74.08,74.08,0,0,1-17.46-20.11L1065.7,305a27.35,27.35,0,0,0,7.74,7.91,69.88,69.88,0,0,0,12.86,7.25,85.21,85.21,0,0,0,16.31,5.27,83.14,83.14,0,0,0,18.12,2h1.65a69.57,69.57,0,0,0,18.29-1.32,87.4,87.4,0,0,0,21.26-6.92q18.1-8.24,19.77-22.08A12.55,12.55,0,0,0,1181,291a13,13,0,0,0-2.64-3.79q-5.93-6.6-18.12-9.89-15.49-4.6-35.59-4.61-5.61,0-16-.66a153.23,153.23,0,0,1-22.57-3.3Q1055.49,261.5,1038,244q-19.12-19.77-17.14-48.77v-.33a76.78,76.78,0,0,1,6.43-26A63.55,63.55,0,0,1,1043,147.47q16.82-16.14,43.17-22.74a143.23,143.23,0,0,1,35.43-4.28,144.73,144.73,0,0,1,36.41,4.61q20.43,5,35.43,14.5T1217,161.64l-46.8,29.66q-2-3-8.23-6.92t-17.47-6.59a102.14,102.14,0,0,0-22.74-2.8,76.41,76.41,0,0,0-21.42,2.47q-8.57,2-13.35,4.94a28,28,0,0,0-7.25,6.1,15.78,15.78,0,0,0-3.13,5.93,20.3,20.3,0,0,0-.66,4.12,13.72,13.72,0,0,0,.83,5.44,9.28,9.28,0,0,0,1.81,2.8q5,4.94,17.8,8.07a119.52,119.52,0,0,0,28.34,3.13q31.63,0,55.85,8.41t39,24.22a69.18,69.18,0,0,1,14.17,23.56,61.8,61.8,0,0,1,3,27.85,73.54,73.54,0,0,1-14.83,38.39q-12.86,17-35.26,27.84a146.87,146.87,0,0,1-61,13.84Z" transform="translate(-30.26 -24.15)" style="fill:#fff"/><path d="M1361.23,276.62l101,102.19h-55.13L1331.24,302l-21.69,18v58.82h-39.21V200.5h39.21v68.28l81-68.28h60.9Z" transform="translate(-30.26 -24.15)" style="fill:#fff"/><path d="M1623.05,200.5h25.14l-78,111.18v67.13H1531V311.68L1453.27,200.5H1501l49.59,70.81,49.6-70.81Z" transform="translate(-30.26 -24.15)" style="fill:#fff"/><path d="M1656,378.81V200.5h39.22V339.59h75.89v39.22Z" transform="translate(-30.26 -24.15)" style="fill:#fff"/><path d="M1783.13,378.81V200.5h39.22V378.81Z" transform="translate(-30.26 -24.15)" style="fill:#fff"/><path d="M2018.42,200.5V378.81h-42.21l-91.58-119.26V378.81h-39.22V200.5h43.37l90.43,117.87V200.5h39.21Z" transform="translate(-30.26 -24.15)" style="fill:#fff"/><path d="M2081.4,239.71v26.53h72.2v39.21h-72.2v34.14h74.74v39.22h-114V200.5h114v39.21Z" transform="translate(-30.26 -24.15)" style="fill:#fff"/></svg>